HIERARCHY
ROOT Hips
{
	OFFSET 0.00000 0.00000 0.00000
	CHANNELS 6 Xposition Yposition Zposition Zrotation Yrotation Xrotation 
	JOINT LHipJoint
	{
		OFFSET 0 0 0
		CHANNELS 3 Zrotation Yrotation Xrotation
		JOINT LeftHip
		{
			OFFSET 1.62964 -1.40469 0.78906
			CHANNELS 3 Zrotation Yrotation Xrotation
			JOINT LeftKnee
			{
				OFFSET 2.29640 -6.30932 0.00000
				CHANNELS 3 Zrotation Yrotation Xrotation
				JOINT LeftAnkle
				{
					OFFSET 2.29451 -6.30412 0.00000
					CHANNELS 3 Zrotation Yrotation Xrotation
					JOINT LeftToe
					{
						OFFSET 0.03611 -0.09921 1.56387
						CHANNELS 3 Zrotation Yrotation Xrotation
						End Site
						{
							OFFSET 0.00000 -0.00000 0.80291
						}
					}
				}
			}
		}
	}
	JOINT RHipJoint
	{
		OFFSET 0 0 0
		CHANNELS 3 Zrotation Yrotation Xrotation
		JOINT RightHip
		{
			OFFSET -1.73712 -1.40469 0.78906
			CHANNELS 3 Zrotation Yrotation Xrotation
			JOINT RightKnee
			{
				OFFSET -2.28137 -6.26801 0.00000
				CHANNELS 3 Zrotation Yrotation Xrotation
				JOINT RightAnkle
				{
					OFFSET -2.28681 -6.28298 0.00000
					CHANNELS 3 Zrotation Yrotation Xrotation
					JOINT RightToe
					{
						OFFSET -0.15927 -0.43759 1.61103
						CHANNELS 3 Zrotation Yrotation Xrotation
						End Site
						{
							OFFSET -0.00000 -0.00000 0.84630
						}
					}
				}
			}
		}
	}
	JOINT lowerback
	{
		OFFSET 0 0 0
		CHANNELS 3 Zrotation Yrotation Xrotation
		JOINT Chest
		{
			OFFSET -0.04227 2.04338 -0.00225
			CHANNELS 3 Zrotation Yrotation Xrotation
			JOINT Chest2
			{
				OFFSET -0.02148 2.04482 -0.04273
				CHANNELS 3 Zrotation Yrotation Xrotation
				JOINT lowerneck
				{
					OFFSET 0 0 0
					CHANNELS 3 Zrotation Yrotation Xrotation
					JOINT Neck
					{
						OFFSET 0.09180 1.44629 0.19359
						CHANNELS 3 Zrotation Yrotation Xrotation
						JOINT Head
						{
							OFFSET 0.00887 1.40645 0.14750
							CHANNELS 3 Zrotation Yrotation Xrotation
							End Site
							{
								OFFSET -0.00669 1.50671 0.03707
							}
						}
					}
				}
				JOINT LeftCollar
				{
					OFFSET 0 0 0
					CHANNELS 3 Zrotation Yrotation Xrotation
					JOINT LeftShoulder
					{
						OFFSET 2.17674 1.86763 -0.06520
CHANNELS 3 Zrotation Xrotation Yrotation
						JOINT LeftElbow
						{
OFFSET 0 -4.657760 0.000000
CHANNELS 3 Zrotation Xrotation Yrotation
							JOINT LeftWrist
							{
OFFSET 0 -3.555390 0.000000
CHANNELS 3 Zrotation Xrotation Yrotation
								JOINT lhand
								{
									OFFSET 0 0 0
CHANNELS 3 Zrotation Xrotation Yrotation
									JOINT LFingers
									{
OFFSET 0 -0.707260 0.000000
CHANNELS 3 Zrotation Xrotation Yrotation
										End Site
										{
OFFSET 0 -0.570220 0.000000
										}
									}
								}
								JOINT LThumb
								{
OFFSET 0 0.000000 0.000000
CHANNELS 3 Zrotation Xrotation Yrotation
									End Site
									{
OFFSET 0 -0.578920 0.578920
									}
								}
							}
						}
					}
				}
				JOINT RightCollar
				{
					OFFSET 0 0 0
					CHANNELS 3 Zrotation Yrotation Xrotation
					JOINT RightShoulder
					{
						OFFSET -2.80694 1.55459 -0.32496
CHANNELS 3 Zrotation Xrotation Yrotation
						JOINT RightElbow
						{
OFFSET 0 -4.719250 -0.000000
CHANNELS 3 Zrotation Xrotation Yrotation
							JOINT RightWrist
							{
OFFSET 0 -3.569900 0.000000
CHANNELS 3 Zrotation Xrotation Yrotation
								JOINT rhand
								{
									OFFSET 0 0 0
CHANNELS 3 Zrotation Xrotation Yrotation
									JOINT RFingers
									{
OFFSET 0 -0.507760 0.000000
CHANNELS 3 Zrotation Xrotation Yrotation
										End Site
										{
OFFSET 0 -0.409370 0.000000
										}
									}
								}
								JOINT RThumb
								{
OFFSET 0 0.000000 0.000000
CHANNELS 3 Zrotation Xrotation Yrotation
									End Site
									{
OFFSET 0 -0.415620 0.415620
									}
								}
							}
						}
					}
				}
			}
		}
	}
}
MOTION
Frames: 6
Frame Time: 0.008333333333333333
-1.101800 19.607700 20.480100 178.679000 -3.805200 -152.368000 0.000000 0.000000 0.000000 -21.479900 -14.597400 -20.667400 0.137900 2.393300 6.593900 0.113300 -4.011100 -6.200600 0.252100 -3.230400 -8.920900 0.000000 0.000000 0.000000 18.497900 13.122200 -21.939400 -0.170200 -2.657700 7.327300 -1.068700 4.494400 -18.557600 -1.863200 8.575200 -24.475300 -6.141700 -2.395200 -30.956700 -0.024600 -1.834800 -2.004800 2.475500 -1.538400 14.083300 -1.241700 -2.818200 -4.200300 5.571600 -4.980300 12.842000 1.633900 -2.411100 4.707800 0.000000 -0.000000 0.000000 5.686600 1.510100 -19.294800 11.448100 -18.971800 1.919100 21.701400 -0.737300 10.925400 0.000000 0.000000 0.000000 -7.125000 0.000000 0.000000 -3.791900 18.258300 -2.418300 0.000000 -0.000000 0.000000 1.167900 5.605100 4.830900 -16.301000 -25.927100 -3.776600 -4.941500 2.014000 57.102700 0.000000 0.000000 0.000000 7.125000 0.000000 -0.000000 83.837200 73.852100 -66.864100
-1.098528 19.609695 20.475791 178.638302 -3.874307 -152.578671 0.000000 0.000000 0.000000 -21.577256 -14.379068 -20.397198 0.133272 2.352842 6.481781 0.106118 -4.142370 -6.063664 0.228240 -3.073913 -8.484635 0.000000 0.000000 0.000000 18.529181 13.087088 -21.572002 -0.164055 -2.609262 7.192838 -1.076760 4.347728 -18.645380 -1.879639 8.610791 -24.585264 -6.226527 -2.448666 -30.784492 -0.028271 -1.867199 -1.946945 2.509973 -1.551806 14.079390 -1.129262 -2.827537 -4.256479 5.457965 -4.971362 12.760285 1.580833 -2.403758 4.686813 0.000000 0.000000 0.000000 5.719717 1.553511 -19.286102 11.464220 -18.996298 1.924287 21.679934 -0.777758 10.958836 0.000000 0.000000 0.000000 -7.125000 0.000000 0.000000 -3.808099 18.224465 -2.431547 0.000000 0.000000 0.000000 1.171092 5.535993 4.850371 -16.235804 -25.839320 -3.748191 -5.076441 2.147744 57.060406 0.000000 0.000000 0.000000 7.125000 0.000000 0.000000 83.668424 73.896628 -66.746076
-1.090131 19.615683 20.463197 178.514165 -4.067678 -153.027144 0.000000 0.000000 0.000000 -21.798399 -13.976515 -19.843185 0.127272 2.299569 6.334261 0.091188 -4.481404 -5.809078 0.204082 -2.906877 -8.019644 0.000000 0.000000 0.000000 18.558198 13.111218 -20.685137 -0.148256 -2.478993 6.831600 -1.083628 3.827488 -18.775713 -1.859901 8.567889 -24.452837 -6.463928 -2.592723 -30.453572 -0.022644 -1.955084 -1.803983 2.619840 -1.593582 14.112550 -1.078867 -2.817563 -4.326902 5.429975 -4.944485 12.687868 1.565016 -2.386047 4.673871 0.000000 0.000000 0.000000 5.753907 1.548945 -19.224420 11.456619 -18.984739 1.921845 21.632482 -0.815654 11.117967 0.000000 0.000000 0.000000 -7.125000 0.000000 0.000000 -3.846410 18.058796 -2.470242 0.000000 0.000000 0.000000 1.205693 5.496031 4.831281 -16.226690 -25.827053 -3.744218 -5.129135 2.192626 57.059117 0.000000 0.000000 0.000000 7.125000 0.000000 0.000000 83.655559 73.914992 -66.754284
-1.085197 19.619715 20.455242 178.427150 -4.174844 -153.317063 0.000000 0.000000 0.000000 -21.966114 -13.655880 -19.522668 0.124433 2.274104 6.263744 0.080291 -4.754575 -5.636321 0.195031 -2.843785 -7.844072 0.000000 0.000000 0.000000 18.559577 13.163228 -20.098145 -0.137970 -2.393799 6.595341 -1.083945 3.448742 -18.830128 -1.829792 8.502126 -24.249997 -6.629251 -2.687386 -30.249305 -0.022140 -2.009927 -1.712430 2.694270 -1.620821 14.136961 -1.088940 -2.769959 -4.354953 5.452327 -4.868465 12.605915 1.578056 -2.345790 4.651601 0.000000 0.000000 0.000000 5.770336 1.543561 -19.106523 11.430143 -18.944530 1.913272 21.615702 -0.835267 11.326753 0.000000 0.000000 0.000000 -7.125000 0.000000 0.000000 -3.864912 17.837531 -2.500898 0.000000 0.000000 0.000000 1.231673 5.490138 4.847780 -16.235797 -25.839316 -3.748173 -5.163448 2.215623 57.122747 0.000000 0.000000 0.000000 7.125000 0.000000 0.000000 83.872204 73.930674 -66.990097
-1.085750 19.620123 20.455307 178.416608 -4.156454 -153.349272 0.000000 0.000000 0.000000 -22.018029 -13.503125 -19.548959 0.125119 2.280069 6.280268 0.076374 -4.868264 -5.584599 0.201613 -2.891081 -7.975647 0.000000 0.000000 0.000000 18.542081 13.222796 -20.017951 -0.136731 -2.383419 6.566534 -1.078728 3.352180 -18.797971 -1.818594 8.477409 -24.173870 -6.654771 -2.696612 -30.240076 -0.026875 -2.012333 -1.707051 2.702129 -1.623180 14.139495 -1.127607 -2.720006 -4.328557 5.484940 -4.792329 12.536891 1.599640 -2.308387 4.624916 0.000000 0.000000 0.000000 5.771157 1.562136 -18.985952 11.398471 -18.896439 1.902982 21.641840 -0.849578 11.501052 0.000000 0.000000 0.000000 -7.125000 0.000000 0.000000 -3.852344 17.649327 -2.508685 0.000000 0.000000 0.000000 1.232906 5.505902 4.915056 -16.239700 -25.844555 -3.749844 -5.232840 2.276265 57.227311 0.000000 0.000000 0.000000 7.125000 0.000000 0.000000 84.227077 73.960724 -67.381639
-1.086787 19.619804 20.456584 178.435760 -4.157092 -153.342090 0.000000 0.000000 0.000000 -22.013161 -13.413031 -19.602824 0.125199 2.281186 6.283460 0.072943 -4.919655 -5.520998 0.208316 -2.938801 -8.108433 0.000000 0.000000 0.000000 18.551976 13.280970 -19.996963 -0.135614 -2.373524 6.539243 -1.075935 3.278525 -18.784963 -1.860968 8.570136 -24.459712 -6.639689 -2.695415 -30.262420 -0.021369 -2.017041 -1.713914 2.697261 -1.625175 14.141969 -1.128884 -2.763257 -4.283071 5.480950 -4.855211 12.549739 1.595650 -2.341583 4.623320 0.000000 0.000000 0.000000 5.781372 1.606345 -18.980765 11.385463 -18.876648 1.898753 21.675675 -0.903523 11.543665 0.000000 0.000000 0.000000 -7.125000 0.000000 0.000000 -3.830079 17.600809 -2.498231 0.000000 0.000000 0.000000 1.218382 5.511727 4.985121 -16.229725 -25.831069 -3.745455 -5.382225 2.429082 57.295939 0.000000 0.000000 0.000000 7.125000 0.000000 0.000000 84.446446 74.016105 -67.666524
